<svg width="300" height="300" viewBox="0 0 300 300" fill="none" xmlns="http://www.w3.org/2000/svg">
<mask id="mask0" mask-type="alpha" maskUnits="userSpaceOnUse" x="0" y="0" width="300" height="300">
<rect width="300" height="300" fill="#2B2B2B"/>
</mask>
<g mask="url(#mask0)">
<rect y="1" width="300" height="300" fill="#313131"/>
<path fill-rule="evenodd" clip-rule="evenodd" d="M77.0378 238.75L39.7987 184L2.5596 238.75H23.3185L-27.8183 298.75H2.15462L-52 360.25H24.7987V395H53.7987V360.25H131.597L77.4428 298.75H106.416L55.2789 238.75H77.0378Z" fill="#C4C4C4" fill-opacity="0.5"/>
<path fill-rule="evenodd" clip-rule="evenodd" d="M77.0378 238.75L39.7987 184L2.5596 238.75H23.3185L-27.8183 298.75H2.15462L-52 360.25H24.7987V395H53.7987V360.25H131.597L77.4428 298.75H106.416L55.2789 238.75H77.0378Z" fill="#C4C4C4" fill-opacity="0.5"/>
<path fill-rule="evenodd" clip-rule="evenodd" d="M169.038 194.75L131.799 140L94.5596 194.75H115.318L64.1817 254.75H94.1546L40 316.25H116.799V351H145.799V316.25H223.597L169.443 254.75H198.416L147.279 194.75H169.038Z" fill="#C4C4C4" fill-opacity="0.6"/>
<path fill-rule="evenodd" clip-rule="evenodd" d="M169.038 194.75L131.799 140L94.5596 194.75H115.318L64.1817 254.75H94.1546L40 316.25H116.799V351H145.799V316.25H223.597L169.443 254.75H198.416L147.279 194.75H169.038Z" fill="#C4C4C4" fill-opacity="0.6"/>
<path fill-rule="evenodd" clip-rule="evenodd" d="M299.038 166.75L261.799 112L224.56 166.75H245.318L194.182 226.75H224.155L170 288.25H246.799V323H275.799V288.25H353.597L299.443 226.75H328.416L277.279 166.75H299.038Z" fill="#C4C4C4" fill-opacity="0.7"/>
<path fill-rule="evenodd" clip-rule="evenodd" d="M299.038 166.75L261.799 112L224.56 166.75H245.318L194.182 226.75H224.155L170 288.25H246.799V323H275.799V288.25H353.597L299.443 226.75H328.416L277.279 166.75H299.038Z" fill="#C4C4C4" fill-opacity="0.7"/>
<path d="M26.7344 40.9609L19.6562 38.8516L20.7344 35.3125L27.8125 37.9375L27.6016 29.875H31.1875L30.9531 38.0547L37.9141 35.4766L38.9922 39.0391L31.7969 41.1719L36.4375 47.5234L33.5312 49.7266L29.1719 42.9766L24.9531 49.5625L22.0234 47.4297L26.7344 40.9609Z" fill="white"/>
<path d="M139.734 82.9609L132.656 80.8516L133.734 77.3125L140.812 79.9375L140.602 71.875H144.188L143.953 80.0547L150.914 77.4766L151.992 81.0391L144.797 83.1719L149.438 89.5234L146.531 91.7266L142.172 84.9766L137.953 91.5625L135.023 89.4297L139.734 82.9609Z" fill="white"/>
<path d="M232.734 33.9609L225.656 31.8516L226.734 28.3125L233.812 30.9375L233.602 22.875H237.188L236.953 31.0547L243.914 28.4766L244.992 32.0391L237.797 34.1719L242.438 40.5234L239.531 42.7266L235.172 35.9766L230.953 42.5625L228.023 40.4297L232.734 33.9609Z" fill="white"/>
<path d="M202.734 110.961L195.656 108.852L196.734 105.312L203.812 107.938L203.602 99.875H207.188L206.953 108.055L213.914 105.477L214.992 109.039L207.797 111.172L212.438 117.523L209.531 119.727L205.172 112.977L200.953 119.562L198.023 117.43L202.734 110.961Z" fill="white"/>
<path d="M95.7344 21.9609L88.6562 19.8516L89.7344 16.3125L96.8125 18.9375L96.6016 10.875H100.188L99.9531 19.0547L106.914 16.4766L107.992 20.0391L100.797 22.1719L105.438 28.5234L102.531 30.7266L98.1719 23.9766L93.9531 30.5625L91.0234 28.4297L95.7344 21.9609Z" fill="white"/>
<path d="M54.7344 82.9609L47.6562 80.8516L48.7344 77.3125L55.8125 79.9375L55.6016 71.875H59.1875L58.9531 80.0547L65.9141 77.4766L66.9922 81.0391L59.7969 83.1719L64.4375 89.5234L61.5312 91.7266L57.1719 84.9766L52.9531 91.5625L50.0234 89.4297L54.7344 82.9609Z" fill="white"/>
</g>
</svg>
